<svg data-name="Layer 1" xmlns="http://www.w3.org/2000/svg" viewBox="0 0 120.78 117.79"><path d="M60.39 0A60.39 60.39 0 0 0 41.3 117.69c3 .56 4.13-1.31 4.13-2.91 0-1.44-.06-6.2-.08-11.24-16.8 3.65-20.34-7.12-20.34-7.12-2.75-7-6.7-8.84-6.7-8.84-5.48-3.75.41-3.67.41-3.67 6.06.43 9.26 6.22 9.26 6.22 5.39 9.23 14.13 6.56 17.57 5 .54-3.9 2.11-6.57 3.83-8.08-13.41-1.53-27.51-6.71-27.51-29.84A23.37 23.37 0 0 1 28.09 41c-.63-1.52-2.69-7.66.59-16 0 0 5.07-1.62 16.61 6.19a57.26 57.26 0 0 1 30.24 0C87.06 23.38 92.12 25 92.12 25c3.29 8.32 1.22 14.46.59 16a23.32 23.32 0 0 1 6.21 16.21c0 23.19-14.13 28.3-27.57 29.8 2.17 1.87 4.1 5.55 4.1 11.18 0 8.08-.07 14.58-.07 16.57 0 1.61 1.09 3.49 4.15 2.9A60.4 60.4 0 0 0 60.39 0z" fill="#fff" fill-rule="evenodd"/></svg>