<svg xmlns="http://www.w3.org/2000/svg" viewBox="0 0 1000 1000"><path d="M452.8 11.63c-70.08 7.29-146.13 32.72-205.82 68.53C182 119.51 119.65 181.86 80.3 246.85 31.89 327.32 6.25 426.58 10.45 518.99c5.31 122.25 52.84 233.67 136.62 320.55 41.34 43.11 84.45 74.5 137.73 100.59 70.74 34.71 135.29 49.52 215.54 49.52s145.24-14.81 215.54-49.52c53.5-26.31 96.39-57.7 137.06-99.7 72.51-75.39 116.72-165.8 133.08-271.69 5.3-34.71 5.3-102.36 0-137.06-8.4-54.82-22.11-98.82-45.76-147.01C859.13 119.09 695.98 14.75 511.39 10.55c-21.23-.46-47.53-.02-58.59 1.08zm93.96 154.97c69.19 17.46 124.02 75.16 138.17 145.46 5.08 24.76 3.54 64.99-3.32 88.65-26.31 91.08-117.17 149.45-210.02 134.86-65.65-10.39-121.58-54.83-145.9-115.62-17.91-45.1-17.91-98.6.44-142.37 35.81-86.44 129.99-133.75 220.63-110.98zm148.11 451.65c45.32 8.4 85.33 25.42 116.72 49.3 20.12 15.47 42.45 39.57 42.45 45.98 0 2.65-5.75 13.04-13.04 23.43-105.67 151.21-297.12 214.66-472.2 156.52-83.78-27.86-158.29-83.57-209.13-156.52-7.29-10.39-13.04-20.78-13.04-23.43 0-6.63 24.54-32.94 43.77-47.09 38.02-28.3 83.79-45.1 138.83-51.07 9.51-1.11 91.08-1.77 181.06-1.55 146.34.45 165.79.89 184.58 4.43z"/></svg>
